<svg width="1387" height="1719" viewBox="0 0 1387 1719" fill="none" xmlns="http://www.w3.org/2000/svg">
<g opacity="0.1" clip-path="url(#clip0_73_4890)">
<path d="M1375.46 34.8515C1358.64 11.2829 1332.29 15.211 1308.54 28.6668L1308.37 28.7504C1305.69 30.2548 1303.02 32.0099 1300.42 33.765L1296.99 35.938C1292.56 38.9467 1287.79 41.3704 1283.27 44.212C1253.08 63.4346 1222.88 82.6572 1192.68 101.963L820.439 337.482C814.082 341.41 807.808 345.505 801.451 349.433C800.279 350.102 797.603 351.773 793.922 354.281L791.496 355.869H791.664C782.964 361.635 775.519 367.653 769.831 374.339C765.565 378.768 761.55 383.532 758.371 388.631C757.618 389.801 757.116 391.054 756.949 392.475C752.599 432.341 699.649 1031.58 699.649 1031.58C699.147 1260.5 698.645 1489.42 698.227 1718.33C730.014 1723.18 745.656 1704.54 756.531 1678.63C768.242 1651.05 780.12 1623.56 791.914 1595.98C797.519 1582.19 803.124 1568.31 808.728 1554.52C814.835 1539.56 820.857 1524.6 826.964 1509.56C830.477 1501.62 833.907 1493.59 837.42 1485.65C840.431 1476.96 843.527 1468.35 846.538 1459.66C849.968 1450.97 853.314 1442.28 856.743 1433.59C861.846 1422.05 866.949 1410.52 872.051 1399.07C883.595 1370.32 895.055 1341.49 906.599 1312.74C923.998 1266.1 940.477 1219.13 958.88 1172.91C1052.74 937.477 1147.26 702.376 1241.37 467.025C1289.05 347.929 1337.98 229.334 1382.48 109.151C1390.51 87.5046 1388.34 52.6533 1375.62 34.8515H1375.46Z" fill="white"/>
<path d="M23.3381 34.8515C40.1518 11.2829 66.5015 15.211 90.2581 28.6668L90.4254 28.7504C93.1022 30.2548 95.779 32.0099 98.3721 33.765L101.802 35.938C106.235 38.9467 111.003 41.3704 115.52 44.212C145.718 63.4346 175.916 82.6572 206.113 101.963L578.356 337.482C584.713 341.41 590.987 345.505 597.344 349.433C598.515 350.102 601.192 351.773 604.873 354.281L607.299 355.869H607.131C615.831 361.635 623.276 367.653 628.964 374.339C633.23 378.768 637.245 383.532 640.424 388.631C641.177 389.801 641.679 391.054 641.846 392.475C646.196 432.341 699.146 1031.58 699.146 1031.58C699.648 1260.5 700.15 1489.42 700.568 1718.33C668.781 1723.18 653.139 1704.54 642.264 1678.63C630.553 1651.05 618.675 1623.56 606.88 1595.98C601.276 1582.19 595.671 1568.31 590.067 1554.52C583.96 1539.56 577.937 1524.6 571.831 1509.56C568.318 1501.62 564.888 1493.59 561.375 1485.65C558.363 1476.96 555.268 1468.35 552.257 1459.66C548.827 1450.97 545.481 1442.28 542.052 1433.59C536.949 1422.05 531.846 1410.52 526.744 1399.07C515.2 1370.32 503.74 1341.49 492.196 1312.74C474.797 1266.1 458.318 1219.13 439.915 1172.91C346.06 937.477 251.535 702.376 157.429 467.025C109.999 348.012 60.9806 229.417 16.4788 109.151C8.44844 87.5046 10.6233 52.6533 23.3381 34.8515Z" fill="white"/>
<path d="M1363.66 16.966C1346.85 -6.60257 1320.5 -2.67448 1296.74 10.7813L1296.57 10.8649C1293.9 12.3693 1291.22 14.1244 1288.63 15.8795L1285.2 18.0525C1280.76 21.0612 1276 23.4849 1271.48 26.3265C1241.28 45.5491 1211.08 64.7717 1180.89 84.0779L808.644 319.596C802.287 323.524 796.013 327.62 789.656 331.548C788.485 332.216 785.808 333.888 782.127 336.395L779.701 337.983H779.869C771.169 343.75 763.724 349.767 758.036 356.453C753.77 360.883 749.755 365.647 746.576 370.745C745.823 371.915 745.321 373.169 745.154 374.59C740.804 414.455 687.854 1013.7 687.854 1013.7C687.352 1242.61 686.85 1471.53 686.432 1700.45C718.219 1705.29 733.861 1686.66 744.736 1660.75C756.447 1633.17 768.325 1605.67 780.12 1578.09C785.724 1564.3 791.329 1550.43 796.933 1536.64C803.04 1521.68 809.062 1506.72 815.169 1491.67C818.682 1483.73 822.112 1475.71 825.625 1467.77C828.637 1459.08 831.732 1450.47 834.743 1441.78C838.173 1433.09 841.519 1424.39 844.948 1415.7C850.051 1404.17 855.154 1392.63 860.256 1381.18C871.8 1352.43 883.26 1323.6 894.804 1294.85C912.203 1248.21 928.682 1201.24 947.085 1155.03C1040.94 919.591 1135.46 684.491 1229.57 449.14C1277.25 330.043 1326.19 211.448 1370.69 91.2654C1378.72 69.6191 1376.54 34.7678 1363.83 16.966H1363.66Z" fill="#FF000F"/>
<path d="M11.5432 16.9657C28.3569 -6.60281 54.7066 -2.67472 78.4632 10.7811L78.6305 10.8647C81.3073 12.369 83.9841 14.1241 86.5772 15.8792L90.0069 18.0522C94.4403 21.061 99.2084 23.4847 103.725 26.3263C133.923 45.5489 164.121 64.7715 194.318 84.0776L566.561 319.596C572.918 323.524 579.192 327.619 585.549 331.547C586.72 332.216 589.397 333.888 593.078 336.395L595.504 337.983H595.336C604.036 343.75 611.481 349.767 617.169 356.453C621.435 360.883 625.45 365.647 628.629 370.745C629.382 371.915 629.884 373.168 630.051 374.589C634.401 414.455 687.351 1013.7 687.351 1013.7C687.853 1242.61 688.355 1471.53 688.773 1700.45C656.986 1705.29 641.344 1686.66 630.469 1660.75C618.758 1633.17 606.88 1605.67 595.085 1578.09C589.481 1564.3 583.876 1550.43 578.272 1536.64C572.165 1521.68 566.142 1506.72 560.036 1491.67C556.523 1483.73 553.093 1475.71 549.58 1467.77C546.568 1459.08 543.473 1450.47 540.462 1441.78C537.032 1433.08 533.686 1424.39 530.257 1415.7C525.154 1404.17 520.051 1392.63 514.949 1381.18C503.405 1352.43 491.945 1323.6 480.401 1294.85C463.002 1248.21 446.523 1201.24 428.12 1155.03C334.265 919.591 239.74 684.491 145.634 449.139C98.2046 330.127 49.1857 211.532 4.68391 91.3488C-3.34649 69.6189 -1.17159 34.8511 11.5432 16.9657Z" fill="#B1021D"/>
</g>
<defs>
<clipPath id="clip0_73_4890">
<rect width="1387" height="1719" fill="white"/>
</clipPath>
</defs>
</svg>
